<svg width="1400" height="1400" viewBox="0 0 1400 1400" fill="none" xmlns="http://www.w3.org/2000/svg">
<rect width="1400" height="1400" rx="250" fill="url(#paint0_linear_103_2)"/>
<path d="M1066.27 710.085C824.205 765.865 766.163 823.296 711.403 1066.64C708.894 1077.79 691.105 1077.79 688.597 1066.64C633.837 823.296 575.794 765.865 333.728 710.085C322.091 707.403 322.091 692.597 333.728 689.915C575.794 634.135 633.836 576.704 688.597 333.361C691.105 322.213 708.894 322.213 711.403 333.361C766.163 576.704 824.205 634.135 1066.27 689.915C1077.91 692.597 1077.91 707.404 1066.27 710.085Z" fill="black"/>
<defs>
<linearGradient id="paint0_linear_103_2" x1="-1.08532e-05" y1="1400" x2="1400" y2="-1.08532e-05" gradientUnits="userSpaceOnUse">
<stop stop-color="#E4E4E7"/>
<stop offset="0.682692" stop-color="#71717A"/>
</linearGradient>
</defs>
</svg>
